<?xml version="1.0" encoding="utf-8"?>
<!-- Generator: Adobe Illustrator 19.2.1, SVG Export Plug-In . SVG Version: 6.00 Build 0)  -->
<svg version="1.1" id="Layer_1" xmlns="http://www.w3.org/2000/svg" xmlns:xlink="http://www.w3.org/1999/xlink" x="0px" y="0px"
	 viewBox="0 0 144 141.8" style="enable-background:new 0 0 144 141.8;" xml:space="preserve">
<style type="text/css">
	.st0{fill:#1E4C82;}
	.st1{clip-path:url(#SVGID_2_);}
	.st2{clip-path:url(#SVGID_4_);}
	.st3{clip-path:url(#SVGID_6_);}
	.st4{clip-path:url(#SVGID_8_);}
	.st5{clip-path:url(#SVGID_10_);}
	.st6{clip-path:url(#SVGID_12_);}
	.st7{clip-path:url(#SVGID_14_);}
</style>
<title>Untitled-3</title>
<path class="st0" d="M43.5,84.4L42,84.3C18.3,82.7,0.4,62.2,2,38.5s22.2-41.6,45.8-40C69.5,0,86.7,17.4,87.9,39l0.1,1.4l-1.4,0.1
	c-22.5,2.4-40.3,20-42.9,42.4L43.5,84.4z M45,1.5C22.9,1.9,5.3,20.2,5.8,42.2c0.4,19.9,15.3,36.5,35.1,38.9
	c3.3-22.7,21.2-40.4,43.9-43.4C82.9,17.2,65.6,1.5,45,1.5z"/>
<g>
	<defs>
		<path id="SVGID_1_" d="M91.4,109.4c-9.2,0-16.3-5.1-16.3-11.7c0-1.3,1-2.3,2.3-2.3s2.3,1,2.3,2.3c0,3.8,5.3,7,11.7,7
			s11.7-3.2,11.7-7s-5.3-7-11.7-7c-9.2,0-16.3-5.1-16.3-11.7s7.2-11.7,16.3-11.7s16.3,5.1,16.3,11.7c0,1.3-1,2.3-2.3,2.3
			s-2.3-1-2.3-2.3c0-3.8-5.3-7-11.7-7s-11.7,3.2-11.7,7s5.3,7,11.7,7c9.2,0,16.3,5.1,16.3,11.7S100.6,109.4,91.4,109.4"/>
	</defs>
	<clipPath id="SVGID_2_">
		<use xlink:href="#SVGID_1_"  style="overflow:visible;"/>
	</clipPath>
	<g class="st1">
		<rect x="70.1" y="62.4" class="st0" width="42.7" height="52"/>
	</g>
</g>
<g>
	<defs>
		<path id="SVGID_3_" d="M91.4,114.1c-1.3,0-2.3-1-2.3-2.3l0,0V65.1c0-1.3,1-2.3,2.3-2.3s2.3,1,2.3,2.3v46.7
			C93.8,113.1,92.7,114.1,91.4,114.1L91.4,114.1"/>
	</defs>
	<clipPath id="SVGID_4_">
		<use xlink:href="#SVGID_3_"  style="overflow:visible;"/>
	</clipPath>
	<g class="st2">
		<rect x="84.1" y="57.8" class="st0" width="14.7" height="61.3"/>
	</g>
</g>
<g>
	<defs>
		<path id="SVGID_5_" d="M40.1,25c-1.3,0-2.3-1-2.3-2.3V18c0-1.3,1-2.3,2.3-2.3s2.3,1,2.3,2.3v4.7C42.5,24,41.4,25,40.1,25"/>
	</defs>
	<clipPath id="SVGID_6_">
		<use xlink:href="#SVGID_5_"  style="overflow:visible;"/>
	</clipPath>
	<g class="st3">
		<rect x="32.8" y="10.7" class="st0" width="14.7" height="19.3"/>
	</g>
</g>
<g>
	<defs>
		<path id="SVGID_7_" d="M49.5,25c-1.3,0-2.3-1-2.3-2.3v0V18c0-1.3,1-2.3,2.3-2.3s2.3,1,2.3,2.3v4.7C51.8,24,50.7,25,49.5,25"/>
	</defs>
	<clipPath id="SVGID_8_">
		<use xlink:href="#SVGID_7_"  style="overflow:visible;"/>
	</clipPath>
	<g class="st4">
		<rect x="42.1" y="10.7" class="st0" width="14.7" height="19.3"/>
	</g>
</g>
<g>
	<defs>
		<path id="SVGID_9_" d="M40.1,57.7c-1.3,0-2.3-1-2.3-2.3v-4.7c0-1.3,1-2.3,2.3-2.3s2.3,1,2.3,2.3v4.7
			C42.5,56.7,41.4,57.7,40.1,57.7L40.1,57.7"/>
	</defs>
	<clipPath id="SVGID_10_">
		<use xlink:href="#SVGID_9_"  style="overflow:visible;"/>
	</clipPath>
	<g class="st5">
		<rect x="32.8" y="43.4" class="st0" width="14.7" height="19.3"/>
	</g>
</g>
<g>
	<defs>
		<path id="SVGID_11_" d="M49.5,57.7c-1.3,0-2.3-1-2.3-2.3v-4.7c0-1.3,1-2.3,2.3-2.3s2.3,1,2.3,2.3v4.7
			C51.8,56.7,50.8,57.7,49.5,57.7L49.5,57.7"/>
	</defs>
	<clipPath id="SVGID_12_">
		<use xlink:href="#SVGID_11_"  style="overflow:visible;"/>
	</clipPath>
	<g class="st6">
		<rect x="42.1" y="43.4" class="st0" width="14.7" height="19.3"/>
	</g>
</g>
<path class="st0" d="M91.4,139.5c-28.2,0-51.1-22.9-51.1-51.1s22.9-51.1,51.1-51.1s51.1,22.9,51.1,51.1
	C142.5,116.6,119.6,139.5,91.4,139.5z M91.4,40.3c-26.6,0-48.1,21.5-48.1,48.1s21.5,48.1,48.1,48.1s48.1-21.5,48.1-48.1
	C139.5,61.9,118,40.4,91.4,40.3z"/>
<path class="st0" d="M44.1,126.8c-12.6,0-23.5-8.9-25.9-21.3l8.6,6.7c0.7,0.5,1.6,0.4,2.1-0.3s0.4-1.6-0.3-2.1l-11.9-9.3
	c-0.3-0.4-0.8-0.6-1.3-0.5h-0.2l0,0c-0.5,0.1-0.9,0.5-1,1l-7.2,13.4c-0.4,0.7-0.1,1.6,0.7,2c0.7,0.3,1.6,0.1,1.9-0.6l4.8-8.9
	c3,14,15.4,23.9,29.7,23.9c1.1,0,2-0.9,2-2C46.1,127.7,45.2,126.8,44.1,126.8z"/>
<path class="st0" d="M97.9,7.8c12.6,0,23.5,8.9,25.9,21.3l-8.6-6.7c-0.7-0.5-1.6-0.4-2.1,0.3s-0.4,1.6,0.3,2.1l11.9,9.3
	c0.3,0.4,0.8,0.6,1.3,0.5h0.2l0,0c0.5-0.1,0.9-0.5,1-1l7.2-13.3c0.4-0.7,0.1-1.6-0.7-2c-0.7-0.3-1.6-0.1-1.9,0.6l-4.8,8.9
	c-3-14-15.4-23.9-29.7-23.9c-1.1,0-2,0.9-2,2S96.8,7.8,97.9,7.8z"/>
<g>
	<defs>
		<path id="SVGID_13_" d="M47.1,53H35.5c-1.3,0-2.3-1-2.3-2.3v0v-28c0-1.3,1-2.3,2.3-2.3l0,0h11.7c5.2,0,9.3,4.2,9.4,9.3
			c0,2.7-1.2,5.3-3.2,7.1c3.8,3.4,4.2,9.3,0.8,13.2C52.3,51.9,49.8,53,47.1,53z M37.8,48.3h9.3c2.6,0.1,4.8-1.9,4.9-4.4
			s-1.9-4.8-4.4-4.9c-0.1,0-0.3,0-0.4,0h-9.3L37.8,48.3L37.8,48.3z M37.8,34.3h9.3c2.6-0.1,4.6-2.3,4.4-4.9c-0.1-2.4-2-4.3-4.4-4.4
			h-9.3L37.8,34.3L37.8,34.3z"/>
	</defs>
	<clipPath id="SVGID_14_">
		<use xlink:href="#SVGID_13_"  style="overflow:visible;"/>
	</clipPath>
	<g class="st7">
		<rect x="28.1" y="15.4" class="st0" width="33.3" height="42.7"/>
	</g>
</g>
</svg>
