<?xml version="1.0" encoding="utf-8"?>
<!-- Generator: Adobe Illustrator 15.1.0, SVG Export Plug-In . SVG Version: 6.00 Build 0)  -->
<!DOCTYPE svg PUBLIC "-//W3C//DTD SVG 1.1//EN" "http://www.w3.org/Graphics/SVG/1.1/DTD/svg11.dtd">
<svg version="1.1" id="Layer_1" xmlns="http://www.w3.org/2000/svg" xmlns:xlink="http://www.w3.org/1999/xlink" x="0px" y="0px"
	 width="76px" height="76px" viewBox="-18.5 -20 76 76" enable-background="new -18.5 -20 76 76" xml:space="preserve">
<title>Untitled-3</title>
<g>
	<path fill="#1E4C82" d="M4.665,25.936l-0.765-0.048c-12.12-0.822-21.272-11.303-20.454-23.422
		c0.818-12.119,11.35-21.271,23.419-20.453c11.094,0.767,19.892,9.664,20.502,20.708l0.053,0.716L26.703,3.49
		C15.198,4.715,6.097,13.717,4.765,25.169L4.665,25.936z M5.433-16.454C-5.868-16.25-14.867-6.892-14.612,4.357
		c0.205,10.176,7.822,18.665,17.949,19.891C5.024,12.641,14.176,3.59,25.783,2.058C24.812-8.424,15.965-16.454,5.433-16.454z"/>
	<g>
		<g>
			<g>
				<g>
					<defs>
						<path id="SVGID_1_" d="M29.161,38.718c-4.706,0-8.336-2.607-8.336-5.981c0-0.664,0.51-1.178,1.175-1.178
							c0.667,0,1.177,0.514,1.177,1.178c0,1.942,2.711,3.58,5.984,3.58c3.271,0,5.979-1.638,5.979-3.58
							c0-1.944-2.709-3.583-5.979-3.583c-4.706,0-8.336-2.605-8.336-5.979c0-3.376,3.682-5.985,8.336-5.985
							c4.652,0,8.33,2.609,8.33,5.985c0,0.661-0.51,1.171-1.174,1.171c-0.663,0-1.177-0.51-1.177-1.171
							c0-1.943-2.709-3.581-5.979-3.581c-3.273,0-5.984,1.638-5.984,3.581c0,1.944,2.711,3.578,5.984,3.578
							c4.7,0,8.33,2.609,8.33,5.984C37.491,36.11,33.861,38.718,29.161,38.718"/>
					</defs>
					<clipPath id="SVGID_2_">
						<use xlink:href="#SVGID_1_"  overflow="visible"/>
					</clipPath>
					<g clip-path="url(#SVGID_2_)">
						<rect x="18.267" y="14.686" fill="#1E4C82" width="21.834" height="26.587"/>
					</g>
				</g>
			</g>
		</g>
	</g>
	<g>
		<g>
			<g>
				<g>
					<defs>
						<path id="SVGID_3_" d="M29.161,41.122c-0.667,0-1.178-0.511-1.178-1.176l0,0v-23.88c0-0.665,0.511-1.177,1.178-1.177
							c0.662,0,1.172,0.512,1.172,1.177v23.88C30.386,40.611,29.823,41.122,29.161,41.122L29.161,41.122"/>
					</defs>
					<clipPath id="SVGID_4_">
						<use xlink:href="#SVGID_3_"  overflow="visible"/>
					</clipPath>
					<g clip-path="url(#SVGID_4_)">
						<rect x="25.426" y="12.335" fill="#1E4C82" width="7.517" height="31.343"/>
					</g>
				</g>
			</g>
		</g>
	</g>
	<g>
		<g>
			<g>
				<g>
					<defs>
						<path id="SVGID_5_" d="M2.926-4.437c-0.665,0-1.174-0.512-1.174-1.177v-2.403c0-0.665,0.513-1.176,1.174-1.176
							c0.666,0,1.176,0.511,1.176,1.176v2.403C4.154-4.949,3.591-4.437,2.926-4.437"/>
					</defs>
					<clipPath id="SVGID_6_">
						<use xlink:href="#SVGID_5_"  overflow="visible"/>
					</clipPath>
					<g clip-path="url(#SVGID_6_)">
						<rect x="-0.807" y="-11.749" fill="#1E4C82" width="7.516" height="9.868"/>
					</g>
				</g>
			</g>
		</g>
	</g>
	<g>
		<g>
			<g>
				<g>
					<defs>
						<path id="SVGID_7_" d="M7.731-4.437c-0.664,0-1.174-0.512-1.174-1.177l0,0v-2.403c0-0.665,0.513-1.176,1.174-1.176
							c0.664,0,1.177,0.511,1.177,1.176v2.403C8.908-4.949,8.348-4.437,7.731-4.437"/>
					</defs>
					<clipPath id="SVGID_8_">
						<use xlink:href="#SVGID_7_"  overflow="visible"/>
					</clipPath>
					<g clip-path="url(#SVGID_8_)">
						<rect x="3.95" y="-11.749" fill="#1E4C82" width="7.515" height="9.868"/>
					</g>
				</g>
			</g>
		</g>
	</g>
	<g>
		<g>
			<g>
				<g>
					<defs>
						<path id="SVGID_9_" d="M2.926,12.284c-0.665,0-1.174-0.512-1.174-1.175V8.706c0-0.666,0.513-1.177,1.174-1.177
							c0.666,0,1.176,0.512,1.176,1.177v2.402C4.154,11.772,3.591,12.284,2.926,12.284L2.926,12.284"/>
					</defs>
					<clipPath id="SVGID_10_">
						<use xlink:href="#SVGID_9_"  overflow="visible"/>
					</clipPath>
					<g clip-path="url(#SVGID_10_)">
						<rect x="-0.807" y="4.97" fill="#1E4C82" width="7.516" height="9.87"/>
					</g>
				</g>
			</g>
		</g>
	</g>
	<g>
		<g>
			<g>
				<g>
					<defs>
						<path id="SVGID_11_" d="M7.731,12.284c-0.664,0-1.174-0.512-1.174-1.175V8.706c0-0.666,0.513-1.177,1.174-1.177
							c0.664,0,1.177,0.512,1.177,1.177v2.402C8.908,11.772,8.399,12.284,7.731,12.284L7.731,12.284"/>
					</defs>
					<clipPath id="SVGID_12_">
						<use xlink:href="#SVGID_11_"  overflow="visible"/>
					</clipPath>
					<g clip-path="url(#SVGID_12_)">
						<rect x="3.95" y="4.97" fill="#1E4C82" width="7.515" height="9.87"/>
					</g>
				</g>
			</g>
		</g>
	</g>
	<path fill="#1E4C82" d="M29.161,54.108c-14.422,0-26.132-11.71-26.132-26.126c0-14.419,11.709-26.13,26.132-26.13
		c14.418,0,26.125,11.709,26.125,26.13C55.286,42.398,43.579,54.108,29.161,54.108z M29.161,3.386
		c-13.604,0-24.598,10.994-24.598,24.593c0,13.601,10.994,24.597,24.598,24.597c13.598,0,24.593-10.996,24.593-24.597
		C53.754,14.429,42.759,3.438,29.161,3.386z"/>
	<path fill="#1E4C82" d="M4.972,47.617c-6.444,0-12.018-4.551-13.243-10.892l4.396,3.424c0.359,0.255,0.82,0.206,1.075-0.152
		c0.259-0.357,0.207-0.819-0.152-1.074l-6.083-4.754c-0.153-0.208-0.412-0.309-0.667-0.258h-0.101l0,0
		c-0.259,0.05-0.461,0.258-0.514,0.512l-3.68,6.851c-0.205,0.36-0.051,0.82,0.358,1.024c0.358,0.153,0.817,0.051,0.971-0.308
		l2.456-4.55C-8.68,44.6-2.34,49.661,4.974,49.661c0.562,0,1.021-0.461,1.021-1.023C5.995,48.076,5.534,47.617,4.972,47.617z"/>
	<path fill="#1E4C82" d="M32.482-13.232c6.443,0,12.016,4.551,13.245,10.89l-4.396-3.427c-0.358-0.257-0.821-0.204-1.077,0.154
		C40-5.257,40.05-4.797,40.409-4.542l6.086,4.755c0.153,0.206,0.408,0.307,0.662,0.255h0.102l0,0
		c0.259-0.049,0.463-0.255,0.514-0.512l3.681-6.801c0.204-0.359,0.05-0.817-0.359-1.023c-0.354-0.153-0.817-0.051-0.97,0.307
		L47.668-3.01c-1.535-7.159-7.877-12.221-15.186-12.221c-0.563,0-1.023,0.461-1.023,1.024S31.92-13.232,32.482-13.232z"/>
	<g>
		<g>
			<g>
				<g>
					<defs>
						<path id="SVGID_13_" d="M6.505,9.88h-5.93C-0.09,9.88-0.6,9.369-0.6,8.704l0,0V-5.613c0-0.665,0.512-1.176,1.175-1.176l0,0
							h5.982c2.659,0,4.755,2.147,4.807,4.754c0,1.382-0.615,2.709-1.637,3.629c1.945,1.737,2.147,4.755,0.408,6.749
							C9.167,9.318,7.889,9.88,6.505,9.88z M1.751,7.477h4.753c1.331,0.05,2.457-0.972,2.504-2.25
							c0.05-1.278-0.971-2.456-2.25-2.506c-0.051,0-0.153,0-0.205,0H1.799L1.751,7.477L1.751,7.477z M1.751,0.318h4.753
							c1.331-0.053,2.353-1.178,2.25-2.505c-0.048-1.228-1.023-2.2-2.25-2.249H1.751V0.318L1.751,0.318z"/>
					</defs>
					<clipPath id="SVGID_14_">
						<use xlink:href="#SVGID_13_"  overflow="visible"/>
					</clipPath>
					<g clip-path="url(#SVGID_14_)">
						<rect x="-3.21" y="-9.347" fill="#1E4C82" width="17.028" height="21.835"/>
					</g>
				</g>
			</g>
		</g>
	</g>
</g>
</svg>
