<?xml version="1.0" encoding="utf-8"?>
<!-- Generator: Adobe Illustrator 19.2.0, SVG Export Plug-In . SVG Version: 6.00 Build 0)  -->
<svg version="1.1" id="Layer_1" xmlns="http://www.w3.org/2000/svg" xmlns:xlink="http://www.w3.org/1999/xlink" x="0px" y="0px"
	 viewBox="0 0 100 100" style="enable-background:new 0 0 100 100;" xml:space="preserve">
<style type="text/css">
	.st0{fill:#1E4C82;}
	.st1{clip-path:url(#SVGID_2_);}
	.st2{clip-path:url(#SVGID_4_);}
	.st3{clip-path:url(#SVGID_6_);}
	.st4{clip-path:url(#SVGID_8_);}
	.st5{clip-path:url(#SVGID_10_);}
</style>
<path class="st0" d="M93.9,92.1c-2.8-0.7-7.2-0.7-12.7-0.6c-8.8,0.2-21,0.4-33-2.8l-5.6-1.5l-32.3-7.6C9.7,79.3,8.4,79,8,78.7
	c0-0.2,0.1-0.6,0.3-1.3c1.1-3.9,7.1-3.7,8.6-3.3c0.1,0,0.1,0,0.2,0l16.6,2.6c0.1,0.1,0.1,0.2,0.2,0.4c1,1.5,2.9,1.8,4.8,2l15.1,3
	h0.1c0.6,0.1,3.7,0.4,7.3,0.4c3.9,0,8.3-0.4,10.9-2c0.7-0.4,0.9-1.4,0.5-2.1s-1.4-0.9-2.1-0.5C67.1,80,57.8,79.4,54.3,79l-15.1-3
	c-0.9-0.1-2.6-0.4-2.8-0.7c0-0.1-0.3-0.5,0.2-2.4c0.5-2,3.4-3.8,7.7-3.3l10.8,2.1l0.3-0.1c0.2-0.1,23-6.6,37.2,4.3
	c0.7,0.5,1.6,0.4,2.1-0.3c0.5-0.7,0.4-1.6-0.3-2.1c-6.4-4.9-15.3-7.3-25.8-6.9c-6.9,0.3-12.2,1.6-13.6,2l-10.1-2h-0.1
	c-6.1-0.7-10.2,2.2-11,5.5c-0.1,0.4-0.2,0.9-0.3,1.4l-15.8-2.4C14.1,70.3,6.9,71,5.4,76.7c-0.3,1.2-0.7,2.7,0.2,3.9
	c0.7,0.9,2,1.3,3.9,1.8L41.9,90l5.6,1.5c12.5,3.3,24.8,3.1,33.8,2.9c5.3-0.1,9.5-0.2,11.9,0.5c0.1,0,0.3,0.1,0.4,0.1
	c0.7,0,1.3-0.4,1.4-1.1C95.2,93.1,94.7,92.3,93.9,92.1z"/>
<g>
	<path class="st0" d="M39.9,49c-0.7-0.5-1.6-0.3-2.1,0.3c-0.5,0.7-0.3,1.6,0.3,2.1c0.3,0.2,0.6,0.3,0.9,0.3c0.5,0,0.9-0.2,1.2-0.6
		C40.7,50.4,40.6,49.5,39.9,49z"/>
	<path class="st0" d="M33.6,40.4c-0.3-0.8-1.1-1.2-1.9-0.9c-0.8,0.3-1.2,1.1-0.9,1.9c0.2,0.6,0.8,1,1.4,1c0.2,0,0.3,0,0.5-0.1
		C33.4,42,33.9,41.2,33.6,40.4z"/>
	<path class="st0" d="M31.3,36.6c0.8,0,1.5-0.7,1.5-1.5l0,0l0,0c0-0.8-0.7-1.5-1.5-1.5s-1.5,0.7-1.5,1.5l0,0l0,0
		C29.8,35.9,30.4,36.6,31.3,36.6L31.3,36.6z"/>
	<path class="st0" d="M39,21.3c0.3,0,0.6-0.1,0.9-0.3c0.7-0.5,0.8-1.4,0.3-2.1s-1.4-0.8-2.1-0.3c-0.7,0.5-0.8,1.4-0.3,2.1
		C38.1,21.1,38.5,21.3,39,21.3z"/>
	<circle class="st0" cx="50" cy="16.3" r="1.5"/>
	<path class="st0" d="M31.7,30.6c0.1,0.1,0.3,0.1,0.5,0.1c0.6,0,1.2-0.4,1.4-1c0.2-0.8-0.2-1.6-1-1.9c-0.8-0.2-1.6,0.2-1.9,1
		C30.5,29.5,30.9,30.4,31.7,30.6z"/>
	<path class="st0" d="M55.3,18.6c0.2,0,0.3,0.1,0.5,0.1c0.6,0,1.2-0.4,1.4-1c0.2-0.8-0.2-1.6-1-1.9c-0.8-0.3-1.6,0.2-1.9,1
		C54.1,17.5,54.5,18.3,55.3,18.6z"/>
	<path class="st0" d="M66.4,29.6c0.2,0.6,0.8,1,1.4,1c0.2,0,0.3,0,0.5-0.1c0.8-0.3,1.2-1.1,1-1.9s-1.1-1.2-1.9-1
		C66.6,28,66.1,28.8,66.4,29.6z"/>
	<path class="st0" d="M44.2,18.7c0.2,0,0.3,0,0.5-0.1c0.8-0.2,1.2-1.1,1-1.9c-0.3-0.8-1.1-1.2-1.9-1c-0.8,0.2-1.2,1.1-1,1.9
		C43,18.3,43.6,18.7,44.2,18.7z"/>
	<path class="st0" d="M33.9,25.2c0.3,0.2,0.6,0.3,0.9,0.3c0.5,0,0.9-0.2,1.2-0.6c0.5-0.7,0.3-1.6-0.3-2.1c-0.7-0.5-1.6-0.3-2.1,0.3
		C33.1,23.8,33.3,24.7,33.9,25.2z"/>
	<path class="st0" d="M34,44.9c-0.7,0.5-0.8,1.4-0.3,2.1c0.3,0.4,0.8,0.6,1.2,0.6c0.3,0,0.6-0.1,0.9-0.3c0.7-0.5,0.8-1.4,0.3-2.1
		C35.6,44.5,34.7,44.4,34,44.9z"/>
	<path class="st0" d="M63.9,24.8c0.3,0.4,0.8,0.6,1.2,0.6c0.3,0,0.6-0.1,0.9-0.3c0.7-0.5,0.8-1.4,0.3-2.1s-1.4-0.8-2.1-0.3
		C63.6,23.2,63.5,24.2,63.9,24.8L63.9,24.8z"/>
	<path class="st0" d="M66.1,44.8c-0.7-0.5-1.6-0.3-2.1,0.3c-0.5,0.7-0.3,1.6,0.3,2.1c0.3,0.2,0.6,0.3,0.9,0.3c0.5,0,0.9-0.2,1.2-0.6
		C66.9,46.2,66.7,45.2,66.1,44.8z"/>
	<path class="st0" d="M68.3,39.3c-0.8-0.3-1.6,0.2-1.9,1c-0.2,0.8,0.2,1.6,1,1.9c0.2,0.1,0.3,0.1,0.5,0.1c0.6,0,1.2-0.4,1.4-1
		C69.5,40.4,69.1,39.6,68.3,39.3z"/>
	<path class="st0" d="M68.7,33.5c-0.8,0-1.5,0.7-1.5,1.5s0.7,1.5,1.5,1.5s1.5-0.7,1.5-1.5S69.6,33.5,68.7,33.5z"/>
	<path class="st0" d="M55.4,51.4L55.4,51.4c-0.8,0.2-1.2,1.1-1,1.9c0.2,0.6,0.8,1,1.4,1c0.2,0,0.3,0,0.5-0.1c0.8-0.3,1.2-1.1,1-1.9
		C57,51.6,56.2,51.1,55.4,51.4z"/>
	<path class="st0" d="M44.7,51.4c-0.8-0.2-1.6,0.2-1.9,1c-0.3,0.8,0.2,1.6,1,1.9c0.1,0,0.3,0.1,0.5,0.1c0.6,0,1.2-0.4,1.4-1
		C45.9,52.5,45.5,51.7,44.7,51.4z"/>
	<path class="st0" d="M60.2,48.9c-0.7,0.5-0.8,1.4-0.3,2.1c0.3,0.4,0.8,0.6,1.2,0.6c0.3,0,0.6-0.1,0.9-0.3c0.7-0.5,0.8-1.4,0.3-2.1
		C61.8,48.6,60.8,48.4,60.2,48.9z"/>
	<path class="st0" d="M50,52.2c-0.8,0-1.5,0.7-1.5,1.5s0.7,1.5,1.5,1.5s1.5-0.7,1.5-1.5S50.9,52.2,50,52.2z"/>
	<path class="st0" d="M60.1,21c0.3,0.2,0.6,0.3,0.9,0.3c0.5,0,0.9-0.2,1.2-0.6c0.5-0.7,0.3-1.6-0.3-2.1c-0.7-0.5-1.6-0.3-2.1,0.3
		C59.3,19.6,59.4,20.5,60.1,21z"/>
	<path class="st0" d="M50,10.5c-13.5,0-24.5,11-24.5,24.5s11,24.5,24.5,24.5s24.5-11,24.5-24.5S63.5,10.5,50,10.5z M50,56.5
		c-11.9,0-21.5-9.6-21.5-21.5S38.1,13.5,50,13.5S71.5,23.1,71.5,35S61.9,56.5,50,56.5z"/>
	<g>
		<g>
			<g>
				<defs>
					<path id="SVGID_1_" d="M47.2,28.1c-0.8,0-1.4-0.6-1.4-1.4v-2.8c0-0.8,0.6-1.4,1.4-1.4c0.8,0,1.4,0.6,1.4,1.4v2.8
						C48.7,27.5,48,28.1,47.2,28.1"/>
				</defs>
				<clipPath id="SVGID_2_">
					<use xlink:href="#SVGID_1_"  style="overflow:visible;"/>
				</clipPath>
				<g class="st1">
					<rect x="42.8" y="19.4" class="st0" width="8.9" height="11.7"/>
				</g>
			</g>
		</g>
		<g>
			<g>
				<defs>
					<path id="SVGID_3_" d="M47.2,47.9c-0.8,0-1.4-0.6-1.4-1.4v-2.8c0-0.8,0.6-1.4,1.4-1.4c0.8,0,1.4,0.6,1.4,1.4v2.8
						C48.7,47.3,48,47.9,47.2,47.9L47.2,47.9"/>
				</defs>
				<clipPath id="SVGID_4_">
					<use xlink:href="#SVGID_3_"  style="overflow:visible;"/>
				</clipPath>
				<g class="st2">
					<rect x="42.8" y="39.2" class="st0" width="8.9" height="11.7"/>
				</g>
			</g>
		</g>
		<g>
			<g>
				<defs>
					<path id="SVGID_5_" d="M52.9,47.9c-0.8,0-1.4-0.6-1.4-1.4v-2.8c0-0.8,0.6-1.4,1.4-1.4c0.8,0,1.4,0.6,1.4,1.4v2.8
						C54.3,47.3,53.7,47.9,52.9,47.9L52.9,47.9"/>
				</defs>
				<clipPath id="SVGID_6_">
					<use xlink:href="#SVGID_5_"  style="overflow:visible;"/>
				</clipPath>
				<g class="st3">
					<rect x="48.4" y="39.2" class="st0" width="8.9" height="11.7"/>
				</g>
			</g>
		</g>
		<g>
			<g>
				<g>
					<defs>
						<path id="SVGID_7_" d="M52.9,28.1c-0.8,0-1.4-0.6-1.4-1.4l0,0v-2.8c0-0.8,0.6-1.4,1.4-1.4c0.8,0,1.4,0.6,1.4,1.4v2.8
							C54.3,27.5,53.6,28.1,52.9,28.1"/>
					</defs>
					<clipPath id="SVGID_8_">
						<use xlink:href="#SVGID_7_"  style="overflow:visible;"/>
					</clipPath>
					<g class="st4">
						<rect x="48.4" y="19.4" class="st0" width="8.9" height="11.7"/>
					</g>
				</g>
			</g>
			<g>
				<g>
					<defs>
						<path id="SVGID_9_" d="M51.5,45h-7c-0.8,0-1.4-0.6-1.4-1.4l0,0V26.7c0-0.8,0.6-1.4,1.4-1.4l0,0h7.1c3.1,0,5.6,2.5,5.7,5.6
							c0,1.6-0.7,3.2-1.9,4.3c2.3,2.1,2.5,5.6,0.5,8C54.6,44.3,53.1,45,51.5,45z M45.8,42.2h5.6c1.6,0.1,2.9-1.1,3-2.7
							c0.1-1.5-1.1-2.9-2.7-3c-0.1,0-0.2,0-0.2,0h-5.6L45.8,42.2L45.8,42.2z M45.8,33.7h5.6c1.6-0.1,2.8-1.4,2.7-3
							c-0.1-1.5-1.2-2.6-2.7-2.7h-5.6V33.7L45.8,33.7z"/>
					</defs>
					<clipPath id="SVGID_10_">
						<use xlink:href="#SVGID_9_"  style="overflow:visible;"/>
					</clipPath>
					<g class="st5">
						<rect x="40" y="22.3" class="st0" width="20.2" height="25.8"/>
					</g>
				</g>
			</g>
		</g>
	</g>
</g>
</svg>
