<?xml version="1.0" encoding="utf-8"?>
<!-- Generator: Adobe Illustrator 19.2.0, SVG Export Plug-In . SVG Version: 6.00 Build 0)  -->
<svg version="1.1" id="Layer_1" xmlns="http://www.w3.org/2000/svg" xmlns:xlink="http://www.w3.org/1999/xlink" x="0px" y="0px"
	 viewBox="0 0 24 24" style="enable-background:new 0 0 24 24;" xml:space="preserve">
<style type="text/css">
	.st0{fill:#1E4C82;}
</style>
<g>
	<path class="st0" d="M12.5,21c-0.2,0-0.4-0.1-0.5-0.3l-1.9-5.8L4.3,13C4.2,12.9,4,12.8,4,12.6c0-0.2,0.1-0.4,0.2-0.5l19-11
		c0.2-0.1,0.4-0.1,0.5,0C23.9,1.2,24,1.4,24,1.6l-3,17c0,0.1-0.1,0.3-0.3,0.4c-0.1,0.1-0.3,0.1-0.4,0l-6.4-2.8L13,20.6
		C12.9,20.8,12.8,21,12.5,21C12.5,21,12.5,21,12.5,21z M5.7,12.4l4.9,1.6c0.1,0,0.3,0.2,0.3,0.3l1.4,4.2l0.6-3.2
		c0-0.1,0.1-0.3,0.3-0.3c0.1-0.1,0.3-0.1,0.4,0l6.4,2.8l2.7-15.3L5.7,12.4z"/>
	<path class="st0" d="M13.5,16c-0.1,0-0.2,0-0.3-0.1c-0.2-0.2-0.3-0.5-0.1-0.7l6.5-9.1l-8.7,8.7c-0.2,0.2-0.5,0.2-0.7,0
		s-0.2-0.5,0-0.7l13-13c0.2-0.2,0.5-0.2,0.7,0c0.2,0.2,0.2,0.5,0.1,0.7l-10,14C13.8,15.9,13.7,16,13.5,16z"/>
	<path class="st0" d="M12.5,21c-0.1,0-0.2,0-0.3-0.1c-0.2-0.2-0.3-0.5-0.1-0.7l3-4c0.2-0.2,0.5-0.3,0.7-0.1c0.2,0.2,0.3,0.5,0.1,0.7
		l-3,4C12.8,20.9,12.7,21,12.5,21z"/>
	<g>
		<g>
			<path class="st0" d="M1.2,19.7c-0.1,0-0.2,0-0.3-0.1c-0.2-0.2-0.5-0.5-0.7-0.7c-0.2-0.2-0.2-0.5,0-0.7c0.2-0.2,0.5-0.2,0.7,0
				c0.2,0.2,0.5,0.5,0.7,0.7c0.2,0.2,0.2,0.5,0,0.7C1.5,19.6,1.4,19.7,1.2,19.7z"/>
			<path class="st0" d="M8,23c-0.5,0-1,0-1.4-0.1c-0.3-0.1-0.4-0.3-0.4-0.6c0.1-0.3,0.3-0.4,0.6-0.4C7.2,22,7.6,22,8,22c0,0,0,0,0,0
				l0.2,0c0.3,0,0.5,0.2,0.5,0.5S8.6,23,8.3,23L8,23C8,23,8,23,8,23z M4.5,22c-0.1,0-0.2,0-0.2-0.1c-0.5-0.2-0.9-0.5-1.4-0.9
				c-0.2-0.2-0.3-0.5-0.1-0.7c0.2-0.2,0.5-0.3,0.7-0.1c0.4,0.3,0.9,0.6,1.3,0.8c0.2,0.1,0.3,0.4,0.2,0.7C4.8,21.9,4.6,22,4.5,22z"/>
			<path class="st0" d="M10.6,22.5c-0.2,0-0.4-0.1-0.5-0.3c-0.1-0.3,0-0.5,0.3-0.7c0.3-0.1,0.6-0.3,0.8-0.4c0.2-0.1,0.5-0.1,0.7,0.2
				c0.1,0.2,0.1,0.5-0.2,0.7c-0.3,0.2-0.6,0.3-1,0.5C10.7,22.4,10.7,22.5,10.6,22.5z"/>
		</g>
	</g>
</g>
</svg>
