<?xml version="1.0" encoding="UTF-8" standalone="no"?>
<svg width="114px" height="114px" viewBox="0 0 114 114" version="1.1" xmlns="http://www.w3.org/2000/svg" xmlns:xlink="http://www.w3.org/1999/xlink">
    <g id="Page-1" stroke="none" stroke-width="1" fill="none" fill-rule="evenodd">
        <g id="Home---Alt" transform="translate(-458.000000, -1001.000000)">
            <g id="Group-4" transform="translate(460.000000, 1002.000000)">
                <path d="M30.9186831,66.748187 C13.6924732,65.5723185 0.0375,51.1827773 0.0375,33.6633 C0.0375,15.3771074 14.9138074,0.5008 33.2,0.5008 C50.8508248,0.5008 65.3246058,14.3612895 66.3091019,31.7700273 C47.797022,33.6435638 33.0044861,48.2986819 30.9186886,66.7481874 Z" id="Combined-Shape" stroke="#1E4C82" stroke-width="2.4"></path>
                <g id="Page-1" transform="translate(2.000000, 2.900800)">
                    <path d="M3,89.3333333 C2.65,89.3333333 2.29533333,89.254 1.95466667,89.086 C0.802,88.5073333 0.335333333,87.1073333 0.909333333,85.9546667 L5.576,76.6213333 C6.15466667,75.4686667 7.55933333,75.0113333 8.70733333,75.576 L18.0406667,80.2426667 C19.1933333,80.8213333 19.66,82.2213333 19.086,83.374 C18.512,84.5313333 17.112,84.9886667 15.9546667,84.4193333 L8.70733333,80.798 L5.086,88.0453333 C4.67533333,88.862 3.854,89.3333333 3,89.3333333" id="Fill-1" fill="#1E4C82"></path>
                    <path d="M31,103.333333 L30.9906667,103.333333 C16.3326667,103.286667 6.99466667,90.5373333 5.352,77.97 C5.18866667,76.6913333 6.08466667,75.52 7.368,75.352 C8.56266667,75.1653333 9.81333333,76.08 9.986,77.3633333 C11.3626667,87.9193333 19.03,98.6293333 31.0093333,98.6666667 C32.2926667,98.6713333 33.338,99.7213333 33.3333333,101.004667 C33.3286667,102.288 32.2833333,103.333333 31,103.333333" id="Fill-3" fill="#1E4C82"></path>
                    <path d="M96.3333333,28.662 C95.9833333,28.662 95.6286667,28.5826667 95.288,28.4146667 L85.9546667,23.748 C84.802,23.1693333 84.3353333,21.7693333 84.9093333,20.6166667 C85.488,19.464 86.888,19.0066667 88.0406667,19.5713333 L95.288,23.1926667 L98.9093333,15.9453333 C99.488,14.7926667 100.888,14.34 102.040667,14.9 C103.193333,15.4786667 103.66,16.8786667 103.086,18.0313333 L98.4193333,27.3646667 C98.0086667,28.186 97.1873333,28.662 96.3333333,28.662" id="Fill-5" fill="#1E4C82"></path>
                    <path d="M96.3286667,28.662 C95.176,28.662 94.1726667,27.808 94.0186667,26.632 C92.6373333,16.076 84.9746667,5.366 72.9906667,5.32866667 C71.7073333,5.324 70.662,4.274 70.6666667,2.986 C70.6713333,1.69333333 71.9033333,0.727333333 73.0093333,0.657333333 C87.6673333,0.704 97.0053333,13.4533333 98.648,26.0206667 C98.8113333,27.2993333 97.9153333,28.4706667 96.632,28.6386667 C96.534,28.6526667 96.4313333,28.662 96.3286667,28.662" id="Fill-7" fill="#1E4C82"></path>
                    <g id="Group-2" transform="translate(55.280000, 47.600000)" fill="#1E4C82">
                        <path d="M13.0666667,37.5466667 C5.73813333,37.5466667 0,33.4474667 0,28.2133333 C0,27.1829333 0.836266667,26.3466667 1.86666667,26.3466667 C2.89706667,26.3466667 3.73333333,27.1829333 3.73333333,28.2133333 C3.73333333,31.2485333 8.008,33.8133333 13.0666667,33.8133333 C18.1253333,33.8133333 22.4,31.2485333 22.4,28.2133333 C22.4,25.1781333 18.1253333,22.6133333 13.0666667,22.6133333 C5.73813333,22.6133333 0,18.5141333 0,13.28 C0,8.04586667 5.73813333,3.94666667 13.0666667,3.94666667 C20.3952,3.94666667 26.1333333,8.04586667 26.1333333,13.28 C26.1333333,14.3104 25.2970667,15.1466667 24.2666667,15.1466667 C23.2362667,15.1466667 22.4,14.3104 22.4,13.28 C22.4,10.2448 18.1253333,7.68 13.0666667,7.68 C8.008,7.68 3.73333333,10.2448 3.73333333,13.28 C3.73333333,16.3152 8.008,18.88 13.0666667,18.88 C20.3952,18.88 26.1333333,22.9792 26.1333333,28.2133333 C26.1333333,33.4474667 20.3952,37.5466667 13.0666667,37.5466667" id="Fill-9"></path>
                        <path d="M13.0666667,41.28 C12.0362667,41.28 11.2,40.4437333 11.2,39.4133333 L11.2,2.08 C11.2,1.0496 12.0362667,0.213333333 13.0666667,0.213333333 C14.0970667,0.213333333 14.9333333,1.0496 14.9333333,2.08 L14.9333333,39.4133333 C14.9333333,40.4437333 14.0970667,41.28 13.0666667,41.28" id="Fill-11"></path>
                    </g>
                    <g id="Group-3" transform="translate(21.600000, 9.840000)" fill="#1E4C82">
                        <path d="M3.84,15.2533333 L11.3066667,15.2533333 C13.3674667,15.2533333 15.04,13.5770667 15.04,11.52 C15.04,9.46293333 13.3674667,7.78666667 11.3066667,7.78666667 L3.84,7.78666667 L3.84,15.2533333 Z M3.84,26.4533333 L11.3066667,26.4533333 C13.3674667,26.4533333 15.04,24.7770667 15.04,22.72 C15.04,20.6629333 13.3674667,18.9866667 11.3066667,18.9866667 L3.84,18.9866667 L3.84,26.4533333 Z M11.3066667,30.1866667 L1.97333333,30.1866667 C0.942933333,30.1866667 0.106666667,29.3504 0.106666667,28.32 L0.106666667,5.92 C0.106666667,4.8896 0.942933333,4.05333333 1.97333333,4.05333333 L11.3066667,4.05333333 C15.4245333,4.05333333 18.7733333,7.40213333 18.7733333,11.52 C18.7733333,13.7488 17.7914667,15.7498667 16.2384,17.12 C17.7914667,18.4901333 18.7733333,20.4912 18.7733333,22.72 C18.7733333,26.8378667 15.4245333,30.1866667 11.3066667,30.1866667 L11.3066667,30.1866667 Z" id="Fill-17"></path>
                        <path d="M5.70666667,7.78666667 C4.67626667,7.78666667 3.84,6.9504 3.84,5.92 L3.84,2.18666667 C3.84,1.15626667 4.67626667,0.32 5.70666667,0.32 C6.73706667,0.32 7.57333333,1.15626667 7.57333333,2.18666667 L7.57333333,5.92 C7.57333333,6.9504 6.73706667,7.78666667 5.70666667,7.78666667" id="Fill-19"></path>
                        <path d="M13.1733333,7.78666667 C12.1429333,7.78666667 11.3066667,6.9504 11.3066667,5.92 L11.3066667,2.18666667 C11.3066667,1.15626667 12.1429333,0.32 13.1733333,0.32 C14.2037333,0.32 15.04,1.15626667 15.04,2.18666667 L15.04,5.92 C15.04,6.9504 14.2037333,7.78666667 13.1733333,7.78666667" id="Fill-21"></path>
                        <path d="M5.70666667,33.92 C4.67626667,33.92 3.84,33.0837333 3.84,32.0533333 L3.84,28.32 C3.84,27.2896 4.67626667,26.4533333 5.70666667,26.4533333 C6.73706667,26.4533333 7.57333333,27.2896 7.57333333,28.32 L7.57333333,32.0533333 C7.57333333,33.0837333 6.73706667,33.92 5.70666667,33.92" id="Fill-23"></path>
                        <path d="M13.1733333,33.92 C12.1429333,33.92 11.3066667,33.0837333 11.3066667,32.0533333 L11.3066667,28.32 C11.3066667,27.2896 12.1429333,26.4533333 13.1733333,26.4533333 C14.2037333,26.4533333 15.04,27.2896 15.04,28.32 L15.04,32.0533333 C15.04,33.0837333 14.2037333,33.92 13.1733333,33.92" id="Fill-25"></path>
                    </g>
                    <path d="M68.3333333,108 C46.4606667,108 28.6666667,90.206 28.6666667,68.3333333 C28.6666667,46.4606667 46.4606667,28.6666667 68.3333333,28.6666667 C90.206,28.6666667 108,46.4606667 108,68.3333333 C108,90.206 90.206,108 68.3333333,108" id="Fill-15" stroke="#1E4C82" stroke-width="2.4"></path>
                </g>
            </g>
        </g>
    </g>
</svg>