<?xml version="1.0" encoding="utf-8"?>
<!-- Generator: Adobe Illustrator 19.2.1, SVG Export Plug-In . SVG Version: 6.00 Build 0)  -->
<svg version="1.1" id="Layer_1" xmlns="http://www.w3.org/2000/svg" xmlns:xlink="http://www.w3.org/1999/xlink" x="0px" y="0px"
	 viewBox="0 0 148.2 121.6" style="enable-background:new 0 0 148.2 121.6;" xml:space="preserve">
<style type="text/css">
	.st0{fill:none;}
	.st1{fill:#1E4C82;}
	.st2{clip-path:url(#SVGID_2_);}
	.st3{clip-path:url(#SVGID_4_);}
	.st4{clip-path:url(#SVGID_6_);}
	.st5{clip-path:url(#SVGID_8_);}
	.st6{clip-path:url(#SVGID_10_);}
	.st7{clip-path:url(#SVGID_12_);}
	.st8{clip-path:url(#SVGID_14_);}
	.st9{clip-path:url(#SVGID_16_);}
	.st10{clip-path:url(#SVGID_18_);}
	.st11{clip-path:url(#SVGID_20_);}
	.st12{clip-path:url(#SVGID_22_);}
	.st13{clip-path:url(#SVGID_24_);}
</style>
<title>Untitled-3</title>
<path class="st0" d="M121,3H8.5C5.5,3,3,5.5,3,8.5v104.6c0,3,2.5,5.5,5.5,5.5h112.7c13.3,0,24.1-10.8,24.1-24.1V78.4h-42.6
	c-2.8,0-5.1-2.3-5.1-5.1V48.6c0-2.8,2.3-5.1,5.1-5.1h42.6V27.1C145.1,13.8,134.3,3.1,121,3z"/>
<path class="st0" d="M100.6,48.6v24.7c0,1.1,0.9,2.1,2.1,2.1l0,0h42.4V46.5h-42.4C101.5,46.5,100.6,47.5,100.6,48.6z"/>
<path class="st1" d="M121,0H8.5C3.8,0,0,3.8,0,8.5v104.6c0,4.7,3.8,8.5,8.5,8.5h112.7c15,0,27.1-12.1,27.1-27.1V27.1
	C148,12.2,135.9,0.1,121,0z M145.3,43.5h-42.6c-2.8,0-5.1,2.3-5.1,5.1v24.7c0,2.8,2.3,5.1,5.1,5.1h42.6v16.1
	c0,13.3-10.8,24.1-24.1,24.1H8.5c-3,0-5.5-2.5-5.5-5.5V8.5C3,5.5,5.5,3,8.5,3H121c13.3,0.1,24.1,10.8,24.3,24.1V43.5z M145.1,46.5
	v28.9h-42.4c-1.1,0-2.1-0.9-2.1-2.1l0,0V48.6c0-1.1,0.9-2.1,2.1-2.1L145.1,46.5L145.1,46.5z"/>
<g>
	<defs>
		<path id="SVGID_1_" d="M40.9,16.5h12c1,0,1.8-0.8,1.8-1.8v0c0-0.9-0.7-1.7-1.6-1.8c-0.1,0-0.1,0-0.2,0h-12c-1,0-1.8,0.8-1.8,1.8v0
			c-0.1,0.9,0.7,1.7,1.6,1.8C40.8,16.6,40.8,16.6,40.9,16.5"/>
	</defs>
	<clipPath id="SVGID_2_">
		<use xlink:href="#SVGID_1_"  style="overflow:visible;"/>
	</clipPath>
	<g class="st2">
		<rect x="34.1" y="8" class="st1" width="25.6" height="13.6"/>
	</g>
</g>
<g>
	<defs>
		<path id="SVGID_3_" d="M82.3,106.8c0,1,0.8,1.8,1.8,1.8l0,0h12c1,0,1.8-0.8,1.8-1.8l0,0c0.1-0.9-0.6-1.7-1.6-1.8
			c-0.1,0-0.2,0-0.2,0h-12c-0.9-0.1-1.7,0.7-1.8,1.6C82.3,106.7,82.3,106.7,82.3,106.8"/>
	</defs>
	<clipPath id="SVGID_4_">
		<use xlink:href="#SVGID_3_"  style="overflow:visible;"/>
	</clipPath>
	<g class="st3">
		<rect x="77.3" y="100" class="st1" width="25.6" height="13.6"/>
	</g>
</g>
<g>
	<defs>
		<path id="SVGID_5_" d="M62.4,16.5h12c1,0,1.8-0.8,1.8-1.8v0c0-0.9-0.7-1.7-1.6-1.8c-0.1,0-0.1,0-0.2,0h-12c-1,0-1.8,0.8-1.8,1.8
			C60.6,15.8,61.4,16.6,62.4,16.5"/>
	</defs>
	<clipPath id="SVGID_6_">
		<use xlink:href="#SVGID_5_"  style="overflow:visible;"/>
	</clipPath>
	<g class="st4">
		<rect x="55.6" y="8" class="st1" width="25.6" height="13.6"/>
	</g>
</g>
<g>
	<defs>
		<path id="SVGID_7_" d="M74.4,105h-12c-1,0-1.8,0.8-1.8,1.8l0,0c-0.1,0.9,0.7,1.7,1.6,1.8c0.1,0,0.1,0,0.2,0h12
			c1,0,1.8-0.8,1.8-1.8S75.4,105,74.4,105"/>
	</defs>
	<clipPath id="SVGID_8_">
		<use xlink:href="#SVGID_7_"  style="overflow:visible;"/>
	</clipPath>
	<g class="st5">
		<rect x="55.6" y="100" class="st1" width="25.6" height="13.6"/>
	</g>
</g>
<g>
	<defs>
		<path id="SVGID_9_" d="M95.9,13h-12c-1,0-1.8,0.8-1.8,1.8v0c-0.1,0.9,0.7,1.7,1.6,1.8c0.1,0,0.1,0,0.2,0h12c1,0,1.8-0.8,1.8-1.8
			C97.7,13.8,96.9,13,95.9,13"/>
	</defs>
	<clipPath id="SVGID_10_">
		<use xlink:href="#SVGID_9_"  style="overflow:visible;"/>
	</clipPath>
	<g class="st6">
		<rect x="77.1" y="8" class="st1" width="25.6" height="13.6"/>
	</g>
</g>
<g>
	<defs>
		<path id="SVGID_11_" d="M117.4,13h-12c-1,0-1.8,0.8-1.8,1.8v0c-0.1,0.9,0.7,1.7,1.6,1.8c0.1,0,0.1,0,0.2,0h12c1,0,1.8-0.8,1.8-1.8
			v0c0.1-0.9-0.7-1.7-1.6-1.8C117.5,13,117.4,13,117.4,13"/>
	</defs>
	<clipPath id="SVGID_12_">
		<use xlink:href="#SVGID_11_"  style="overflow:visible;"/>
	</clipPath>
	<g class="st7">
		<rect x="98.6" y="8" class="st1" width="25.6" height="13.6"/>
	</g>
</g>
<g>
	<defs>
		<path id="SVGID_13_" d="M127.4,13.3c-0.9-0.2-1.9,0.3-2.2,1.2c-0.2,0.9,0.3,1.9,1.2,2.1c3.2,0.8,5.6,3.7,5.7,7
			c0.1,0.9,0.8,1.6,1.8,1.6c0.9,0,1.6-0.8,1.6-1.7c0,0,0-0.1,0-0.1C135.4,18.7,132.1,14.6,127.4,13.3"/>
	</defs>
	<clipPath id="SVGID_14_">
		<use xlink:href="#SVGID_13_"  style="overflow:visible;"/>
	</clipPath>
	<g class="st8">
		<rect x="120.2" y="8.3" class="st1" width="20.5" height="22"/>
	</g>
</g>
<g>
	<defs>
		<path id="SVGID_15_" d="M105.6,108.6h12c1,0,1.8-0.8,1.8-1.8l0,0c0.1-0.9-0.7-1.7-1.6-1.8c-0.1,0-0.1,0-0.2,0h-12
			c-1,0-1.8,0.8-1.8,1.8l0,0c-0.1,0.9,0.7,1.7,1.6,1.8C105.4,108.6,105.5,108.6,105.6,108.6"/>
	</defs>
	<clipPath id="SVGID_16_">
		<use xlink:href="#SVGID_15_"  style="overflow:visible;"/>
	</clipPath>
	<g class="st9">
		<rect x="98.8" y="100" class="st1" width="25.6" height="13.6"/>
	</g>
</g>
<g>
	<defs>
		<path id="SVGID_17_" d="M19.4,16.5h12c1,0,1.8-0.8,1.8-1.8v0c0-0.9-0.7-1.7-1.6-1.8c-0.1,0-0.1,0-0.2,0h-12c-1,0-1.8,0.8-1.8,1.8
			v0c-0.1,0.9,0.7,1.7,1.6,1.8C19.3,16.6,19.3,16.6,19.4,16.5"/>
	</defs>
	<clipPath id="SVGID_18_">
		<use xlink:href="#SVGID_17_"  style="overflow:visible;"/>
	</clipPath>
	<g class="st10">
		<rect x="12.6" y="8" class="st1" width="25.6" height="13.6"/>
	</g>
</g>
<g>
	<defs>
		<path id="SVGID_19_" d="M127.1,108.2h0.4c4.7-1.2,8.1-5.4,8.4-10.2c0-0.9-0.7-1.7-1.6-1.8c-0.9,0-1.7,0.7-1.8,1.6
			c-0.1,3.4-2.5,6.2-5.7,7c-0.9,0.3-1.5,1.2-1.2,2.2C125.6,107.8,126.3,108.3,127.1,108.2"/>
	</defs>
	<clipPath id="SVGID_20_">
		<use xlink:href="#SVGID_19_"  style="overflow:visible;"/>
	</clipPath>
	<g class="st11">
		<rect x="120.4" y="91.2" class="st1" width="20.4" height="22"/>
	</g>
</g>
<g>
	<defs>
		<path id="SVGID_21_" d="M52.9,105h-12c-1,0-1.8,0.8-1.8,1.8l0,0c-0.1,0.9,0.7,1.7,1.6,1.8c0.1,0,0.1,0,0.2,0h12
			c1,0,1.8-0.8,1.8-1.8S53.9,105,52.9,105"/>
	</defs>
	<clipPath id="SVGID_22_">
		<use xlink:href="#SVGID_21_"  style="overflow:visible;"/>
	</clipPath>
	<g class="st12">
		<rect x="34.1" y="100" class="st1" width="25.6" height="13.6"/>
	</g>
</g>
<g>
	<defs>
		<path id="SVGID_23_" d="M31.4,105h-12c-1,0-1.8,0.8-1.8,1.8l0,0c-0.1,0.9,0.7,1.7,1.6,1.8c0.1,0,0.1,0,0.2,0h12
			c1,0,1.8-0.8,1.8-1.8S32.4,105,31.4,105"/>
	</defs>
	<clipPath id="SVGID_24_">
		<use xlink:href="#SVGID_23_"  style="overflow:visible;"/>
	</clipPath>
	<g class="st13">
		<rect x="12.6" y="100" class="st1" width="25.6" height="13.6"/>
	</g>
</g>
<path class="st1" d="M116.6,73.1c-6.7,0-12.1-5.4-12.2-12.1c0-6.7,5.4-12.2,12.1-12.2s12.2,5.4,12.2,12.1
	C128.8,67.6,123.3,73.1,116.6,73.1C116.6,73.1,116.6,73.1,116.6,73.1z M116.6,51.8c-5,0.1-9.1,4.2-9.2,9.2c0,5.1,4.1,9.2,9.2,9.2
	c5.1,0,9.2-4.1,9.2-9.2S121.6,51.8,116.6,51.8z"/>
</svg>
