<svg id="Layer_1" data-name="Layer 1" xmlns="http://www.w3.org/2000/svg" xmlns:xlink="http://www.w3.org/1999/xlink" viewBox="0 0 132.27 132.27"><defs><style>.cls-1,.cls-2{fill:none;}.cls-1{clip-rule:evenodd;}.cls-3{clip-path:url(#clip-path);}.cls-4{clip-path:url(#clip-path-2);}.cls-5{clip-path:url(#clip-path-3);}.cls-6{clip-path:url(#clip-path-4);}.cls-7{clip-path:url(#clip-path-5);}.cls-8{clip-path:url(#clip-path-6);}.cls-9{clip-path:url(#clip-path-7);}.cls-10{clip-path:url(#clip-path-8);}.cls-11{clip-path:url(#clip-path-9);}.cls-12{clip-path:url(#clip-path-10);}.cls-13{clip-path:url(#clip-path-11);}.cls-14{clip-path:url(#clip-path-12);}.cls-15{clip-path:url(#clip-path-13);}.cls-16{clip-path:url(#clip-path-14);}.cls-17{clip-path:url(#clip-path-15);}.cls-18{clip-path:url(#clip-path-16);}.cls-19{clip-path:url(#clip-path-17);}.cls-20{clip-path:url(#clip-path-18);}.cls-21{clip-path:url(#clip-path-19);}.cls-22{clip-path:url(#clip-path-20);}.cls-23{clip-path:url(#clip-path-21);}.cls-24{clip-path:url(#clip-path-22);}.cls-25{clip-path:url(#clip-path-23);}.cls-26{clip-path:url(#clip-path-24);}.cls-27{clip-path:url(#clip-path-25);}.cls-28{clip-path:url(#clip-path-26);}.cls-29{clip-path:url(#clip-path-27);}.cls-30{clip-path:url(#clip-path-28);}.cls-31{clip-path:url(#clip-path-29);}.cls-32{clip-path:url(#clip-path-30);}.cls-33{clip-path:url(#clip-path-31);}.cls-34{clip-path:url(#clip-path-32);}.cls-35{clip-path:url(#clip-path-33);}.cls-36{clip-path:url(#clip-path-34);}.cls-37{clip-path:url(#clip-path-35);}.cls-38{clip-path:url(#clip-path-36);}.cls-39{clip-path:url(#clip-path-37);}.cls-40{fill:#1e4c82;}.cls-41{clip-path:url(#clip-path-38);}.cls-42{clip-path:url(#clip-path-39);}.cls-43{clip-path:url(#clip-path-40);}</style><clipPath id="clip-path"><path class="cls-1" d="M68.15-321.35a25.32,25.32,0,0,0-25.29,25.29,25.32,25.32,0,0,0,25.29,25.29,25.32,25.32,0,0,0,25.29-25.29A25.32,25.32,0,0,0,68.15-321.35Zm0,56.2a31,31,0,0,1-30.91-30.91A31,31,0,0,1,68.15-327a31,31,0,0,1,30.91,30.91A31,31,0,0,1,68.15-265.14Z"/></clipPath><clipPath id="clip-path-2"><path class="cls-1" d="M68.15-310.1a8.44,8.44,0,0,0-8.43,8.43,8.44,8.44,0,0,0,8.43,8.43,8.44,8.44,0,0,0,8.43-8.43A8.44,8.44,0,0,0,68.15-310.1Zm0,22.48A14.07,14.07,0,0,1,54.1-301.67a14.07,14.07,0,0,1,14.05-14.05A14.07,14.07,0,0,1,82.2-301.67,14.07,14.07,0,0,1,68.15-287.62Z"/></clipPath><clipPath id="clip-path-3"><path class="cls-1" d="M51.61-276.92a25.89,25.89,0,0,0,33.07,0,18.22,18.22,0,0,0-16.54-10.71A18.22,18.22,0,0,0,51.61-276.92Zm16.54,11.77a30.71,30.71,0,0,1-21.84-9,2.8,2.8,0,0,1-.67-2.9,23.85,23.85,0,0,1,22.51-16.16,23.86,23.86,0,0,1,22.51,16.16,2.8,2.8,0,0,1-.67,2.9A30.71,30.71,0,0,1,68.15-265.14Z"/></clipPath><clipPath id="clip-path-4"><path class="cls-1" d="M17.56-355.07a8.44,8.44,0,0,0-8.43,8.43v101.17A8.44,8.44,0,0,0,17.56-237H118.73a8.44,8.44,0,0,0,8.43-8.43V-346.64a8.44,8.44,0,0,0-8.43-8.43H17.56ZM118.73-231.42H17.56A14.07,14.07,0,0,1,3.51-245.47V-346.64a14.07,14.07,0,0,1,14.05-14.05H118.73a14.07,14.07,0,0,1,14.05,14.05v101.17A14.07,14.07,0,0,1,118.73-231.42Z"/></clipPath><clipPath id="clip-path-5"><path class="cls-1" d="M130-332.59H6.32a2.81,2.81,0,0,1-2.81-2.81,2.81,2.81,0,0,1,2.81-2.81H130a2.81,2.81,0,0,1,2.81,2.81A2.81,2.81,0,0,1,130-332.59Z"/></clipPath><clipPath id="clip-path-6"><path class="cls-1" d="M37.24-248.28H59.72v-5.62H37.24v5.62Zm25.29,5.62H34.43a2.81,2.81,0,0,1-2.81-2.81v-11.24a2.81,2.81,0,0,1,2.81-2.81h28.1a2.81,2.81,0,0,1,2.81,2.81v11.24A2.81,2.81,0,0,1,62.53-242.66Z"/></clipPath><clipPath id="clip-path-7"><path class="cls-1" d="M76.58-248.28H99.06v-5.62H76.58v5.62Zm25.29,5.62H73.77A2.81,2.81,0,0,1,71-245.47v-11.24a2.81,2.81,0,0,1,2.81-2.81h28.1a2.81,2.81,0,0,1,2.81,2.81v11.24A2.81,2.81,0,0,1,101.87-242.66Z"/></clipPath><clipPath id="clip-path-8"><circle class="cls-2" cx="17.56" cy="-346.64" r="2.81"/></clipPath><clipPath id="clip-path-9"><circle class="cls-2" cx="28.81" cy="-346.64" r="2.81"/></clipPath><clipPath id="clip-path-10"><circle class="cls-2" cx="40.05" cy="-346.64" r="2.81"/></clipPath><clipPath id="clip-path-11"><path class="cls-1" d="M425-328.31H312.54a7,7,0,0,0-7,7v104.6a7,7,0,0,0,7,7H425.19a25.61,25.61,0,0,0,25.61-25.61V-302.7A25.88,25.88,0,0,0,425-328.31Zm21,38.87H439.7v-7.16a1.79,1.79,0,0,0-1.79-1.79,1.69,1.69,0,0,0-1.79,1.79v7.16H401.73a8.22,8.22,0,0,0-8.24,8.24v24.72a8.22,8.22,0,0,0,8.24,8.24H436.3v6.81a1.79,1.79,0,0,0,1.79,1.79,1.69,1.69,0,0,0,1.79-1.79v-6.81h6.27v13.07a20.79,20.79,0,0,1-20.78,20.78H312.54a2.37,2.37,0,0,1-2.33-2.33v-4.48H314a1.79,1.79,0,0,0,1.79-1.79,1.69,1.69,0,0,0-1.79-1.79h-3.76v-88.48H314a1.79,1.79,0,0,0,1.79-1.79,1.69,1.69,0,0,0-1.79-1.79h-3.76v-4.48a2.37,2.37,0,0,1,2.33-2.33H425.37a20.79,20.79,0,0,1,20.78,20.78v13.43H446Zm-0.36,4.66v31.88H401.73a3.59,3.59,0,0,1-3.58-3.58v-24.72a3.59,3.59,0,0,1,3.58-3.58h43.88Z"/></clipPath><clipPath id="clip-path-12"><path class="cls-1" d="M345-313.27h12a1.79,1.79,0,0,0,1.79-1.79,1.69,1.69,0,0,0-1.79-1.79H345a1.79,1.79,0,0,0-1.79,1.79,1.69,1.69,0,0,0,1.79,1.79"/></clipPath><clipPath id="clip-path-13"><path class="cls-1" d="M386.33-223a1.79,1.79,0,0,0,1.79,1.79h12a1.79,1.79,0,0,0,1.79-1.79,1.69,1.69,0,0,0-1.79-1.79h-12a1.69,1.69,0,0,0-1.79,1.79"/></clipPath><clipPath id="clip-path-14"><path class="cls-1" d="M366.45-313.27h12a1.79,1.79,0,0,0,1.79-1.79,1.69,1.69,0,0,0-1.79-1.79h-12a1.79,1.79,0,0,0-1.79,1.79,1.79,1.79,0,0,0,1.79,1.79"/></clipPath><clipPath id="clip-path-15"><path class="cls-1" d="M378.45-224.79h-12a1.79,1.79,0,0,0-1.79,1.79,1.69,1.69,0,0,0,1.79,1.79h12a1.79,1.79,0,0,0,1.79-1.79,1.79,1.79,0,0,0-1.79-1.79"/></clipPath><clipPath id="clip-path-16"><path class="cls-1" d="M399.94-316.85h-12a1.79,1.79,0,0,0-1.79,1.79,1.69,1.69,0,0,0,1.79,1.79h12a1.79,1.79,0,0,0,1.79-1.79,1.79,1.79,0,0,0-1.79-1.79"/></clipPath><clipPath id="clip-path-17"><path class="cls-1" d="M421.43-316.85h-12a1.79,1.79,0,0,0-1.79,1.79,1.69,1.69,0,0,0,1.79,1.79h12a1.79,1.79,0,0,0,1.79-1.79,1.69,1.69,0,0,0-1.79-1.79"/></clipPath><clipPath id="clip-path-18"><path class="cls-1" d="M431.46-316.49a1.84,1.84,0,0,0-2.15,1.25,1.84,1.84,0,0,0,1.25,2.15,7.64,7.64,0,0,1,5.73,7,1.77,1.77,0,0,0,1.79,1.61,1.65,1.65,0,0,0,1.61-1.79,11.08,11.08,0,0,0-8.24-10.21"/></clipPath><clipPath id="clip-path-19"><path class="cls-1" d="M409.61-221.21h12A1.79,1.79,0,0,0,423.4-223a1.69,1.69,0,0,0-1.79-1.79h-12a1.79,1.79,0,0,0-1.79,1.79,1.69,1.69,0,0,0,1.79,1.79"/></clipPath><clipPath id="clip-path-20"><path class="cls-1" d="M323.46-313.27h12a1.79,1.79,0,0,0,1.79-1.79,1.69,1.69,0,0,0-1.79-1.79h-12a1.79,1.79,0,0,0-1.79,1.79,1.69,1.69,0,0,0,1.79,1.79"/></clipPath><clipPath id="clip-path-21"><path class="cls-1" d="M431.1-221.56h0.36a11.25,11.25,0,0,0,8.42-10.21,1.77,1.77,0,0,0-1.61-1.79,1.77,1.77,0,0,0-1.79,1.61,7.47,7.47,0,0,1-5.73,7,1.84,1.84,0,0,0-1.25,2.15,1.45,1.45,0,0,0,1.61,1.25"/></clipPath><clipPath id="clip-path-22"><path class="cls-1" d="M357-224.79H345a1.79,1.79,0,0,0-1.79,1.79,1.69,1.69,0,0,0,1.79,1.79h12a1.79,1.79,0,0,0,1.79-1.79,1.79,1.79,0,0,0-1.79-1.79"/></clipPath><clipPath id="clip-path-23"><path class="cls-1" d="M335.46-224.79h-12a1.79,1.79,0,0,0-1.79,1.79,1.69,1.69,0,0,0,1.79,1.79h12a1.79,1.79,0,0,0,1.79-1.79,1.79,1.79,0,0,0-1.79-1.79"/></clipPath><clipPath id="clip-path-24"><path class="cls-1" d="M414.63-257a11.93,11.93,0,0,0,11.82-11.82,11.93,11.93,0,0,0-11.82-11.82,11.93,11.93,0,0,0-11.82,11.82A11.81,11.81,0,0,0,414.63-257m0-20.24a8.41,8.41,0,0,1,8.42,8.42,8.41,8.41,0,0,1-8.42,8.42,8.41,8.41,0,0,1-8.42-8.42,8.41,8.41,0,0,1,8.42-8.42"/></clipPath><clipPath id="clip-path-25"><path class="cls-1" d="M635.21-255.06a2.94,2.94,0,0,1-1.31-.31,2.92,2.92,0,0,1-1.31-3.91L638.43-271a2.93,2.93,0,0,1,3.91-1.31L654-266.43a2.92,2.92,0,0,1,1.31,3.91,2.92,2.92,0,0,1-3.91,1.31l-9.06-4.53-4.53,9.06a2.92,2.92,0,0,1-2.61,1.61"/></clipPath><clipPath id="clip-path-26"><path class="cls-1" d="M670.21-237.56h0c-18.32-.06-30-16-32-31.7a2.92,2.92,0,0,1,2.52-3.27,3,3,0,0,1,3.27,2.51c1.72,13.19,11.3,26.58,26.28,26.63a2.92,2.92,0,0,1,2.9,2.92,2.92,2.92,0,0,1-2.92,2.91"/></clipPath><clipPath id="clip-path-27"><path class="cls-1" d="M751.88-330.9a2.94,2.94,0,0,1-1.31-.31L738.9-337A2.92,2.92,0,0,1,737.6-341a2.93,2.93,0,0,1,3.91-1.31l9.06,4.53,4.53-9.06A2.94,2.94,0,0,1,759-348.1a2.92,2.92,0,0,1,1.31,3.91l-5.83,11.67a2.92,2.92,0,0,1-2.61,1.62"/></clipPath><clipPath id="clip-path-28"><path class="cls-1" d="M751.87-330.9a2.92,2.92,0,0,1-2.89-2.54c-1.73-13.19-11.3-26.58-26.29-26.63a2.92,2.92,0,0,1-2.9-2.93,3.15,3.15,0,0,1,2.93-2.91c18.32,0.06,30,16,32,31.7a2.92,2.92,0,0,1-2.52,3.27l-0.38,0"/></clipPath><clipPath id="clip-path-29"><path class="cls-1" d="M716.88-255.06c-11.45,0-20.42-6.4-20.42-14.58a2.92,2.92,0,0,1,2.92-2.92,2.92,2.92,0,0,1,2.92,2.92c0,4.74,6.68,8.75,14.58,8.75s14.58-4,14.58-8.75-6.68-8.75-14.58-8.75c-11.45,0-20.42-6.41-20.42-14.58s9-14.58,20.42-14.58,20.42,6.4,20.42,14.58a2.92,2.92,0,0,1-2.92,2.92,2.92,2.92,0,0,1-2.92-2.92c0-4.74-6.68-8.75-14.58-8.75s-14.58,4-14.58,8.75,6.68,8.75,14.58,8.75c11.45,0,20.42,6.4,20.42,14.58s-9,14.58-20.42,14.58"/></clipPath><clipPath id="clip-path-30"><path class="cls-1" d="M716.88-249.23a2.92,2.92,0,0,1-2.92-2.92v-58.33a2.92,2.92,0,0,1,2.92-2.92,2.92,2.92,0,0,1,2.92,2.92v58.33a2.92,2.92,0,0,1-2.92,2.92"/></clipPath><clipPath id="clip-path-31"><path class="cls-1" d="M670.21-284.23A43.8,43.8,0,0,1,626.46-328a43.8,43.8,0,0,1,43.75-43.75A43.8,43.8,0,0,1,714-328a2.92,2.92,0,0,1-2.92,2.92,2.92,2.92,0,0,1-2.92-2.92,38,38,0,0,0-37.92-37.92A38,38,0,0,0,632.29-328a38,38,0,0,0,37.92,37.92,2.92,2.92,0,0,1,2.92,2.92,2.92,2.92,0,0,1-2.92,2.92"/></clipPath><clipPath id="clip-path-32"><path class="cls-1" d="M716.88-231.73a49.64,49.64,0,0,1-49.58-49.58,49.64,49.64,0,0,1,49.58-49.58,49.64,49.64,0,0,1,49.58,49.58,49.64,49.64,0,0,1-49.58,49.58m0-93.33a43.8,43.8,0,0,0-43.75,43.75,43.8,43.8,0,0,0,43.75,43.75,43.8,43.8,0,0,0,43.75-43.75,43.8,43.8,0,0,0-43.75-43.75"/></clipPath><clipPath id="clip-path-33"><path class="cls-1" d="M673.13-307.56H658.54a2.92,2.92,0,0,1-2.92-2.92v-35a2.92,2.92,0,0,1,2.92-2.92h14.58a11.68,11.68,0,0,1,11.67,11.67,11.64,11.64,0,0,1-4,8.75,11.64,11.64,0,0,1,4,8.75A11.68,11.68,0,0,1,673.13-307.56Zm-11.67-5.83h11.67a5.84,5.84,0,0,0,5.83-5.83,5.84,5.84,0,0,0-5.83-5.83H661.46v11.67Zm0-17.5h11.67a5.84,5.84,0,0,0,5.83-5.83,5.84,5.84,0,0,0-5.83-5.83H661.46v11.67Z"/></clipPath><clipPath id="clip-path-34"><path class="cls-1" d="M664.38-342.56a2.92,2.92,0,0,1-2.92-2.92v-5.83a2.92,2.92,0,0,1,2.92-2.92,2.92,2.92,0,0,1,2.92,2.92v5.83a2.92,2.92,0,0,1-2.92,2.92"/></clipPath><clipPath id="clip-path-35"><path class="cls-1" d="M676-342.56a2.92,2.92,0,0,1-2.92-2.92v-5.83a2.92,2.92,0,0,1,2.92-2.92,2.92,2.92,0,0,1,2.92,2.92v5.83a2.92,2.92,0,0,1-2.92,2.92"/></clipPath><clipPath id="clip-path-36"><path class="cls-1" d="M664.38-301.73a2.92,2.92,0,0,1-2.92-2.92v-5.83a2.92,2.92,0,0,1,2.92-2.92,2.92,2.92,0,0,1,2.92,2.92v5.83a2.92,2.92,0,0,1-2.92,2.92"/></clipPath><clipPath id="clip-path-37"><path class="cls-1" d="M676-301.73a2.92,2.92,0,0,1-2.92-2.92v-5.83A2.92,2.92,0,0,1,676-313.4a2.92,2.92,0,0,1,2.92,2.92v5.83a2.92,2.92,0,0,1-2.92,2.92"/></clipPath><clipPath id="clip-path-38"><circle class="cls-2" cx="14.74" cy="15.74" r="2"/></clipPath><clipPath id="clip-path-39"><circle class="cls-2" cx="25.98" cy="15.74" r="2"/></clipPath><clipPath id="clip-path-40"><circle class="cls-2" cx="37.22" cy="15.74" r="2"/></clipPath></defs><title>Untitled-3</title><path class="cls-40" d="M66.14,98.55A32.41,32.41,0,1,1,98.55,66.13,32.45,32.45,0,0,1,66.14,98.55Zm0-61.82A29.41,29.41,0,1,0,95.55,66.13,29.45,29.45,0,0,0,66.14,36.72Z"/><path class="cls-40" d="M66.14,98.55a32.19,32.19,0,0,1-22.9-9.48,4.33,4.33,0,0,1-1-4.46A25.52,25.52,0,0,1,56.1,69.54L57,69.15l0.72,0.65a12.52,12.52,0,0,0,16.85,0l0.72-.65,0.89,0.39a25.53,25.53,0,0,1,13.9,15.08,4.32,4.32,0,0,1-1,4.45A32.19,32.19,0,0,1,66.14,98.55ZM56.46,72.68A22.53,22.53,0,0,0,45,85.6a1.29,1.29,0,0,0,.31,1.35,29.41,29.41,0,0,0,41.56,0,1.29,1.29,0,0,0,.31-1.35A22.54,22.54,0,0,0,75.81,72.68,15.52,15.52,0,0,1,56.46,72.68Z"/><path class="cls-40" d="M66.14,76.07A15.55,15.55,0,1,1,81.69,60.51,15.57,15.57,0,0,1,66.14,76.07Zm0-28.1A12.55,12.55,0,1,0,78.69,60.51,12.57,12.57,0,0,0,66.14,48Z"/><path class="cls-40" d="M116.72,132.27H15.55A15.57,15.57,0,0,1,0,116.72V15.55A15.57,15.57,0,0,1,15.55,0H116.72a15.57,15.57,0,0,1,15.55,15.55V116.72A15.57,15.57,0,0,1,116.72,132.27ZM15.55,3A12.56,12.56,0,0,0,3,15.55V116.72a12.56,12.56,0,0,0,12.55,12.55H116.72a12.56,12.56,0,0,0,12.55-12.55V15.55A12.56,12.56,0,0,0,116.72,3H15.55Z"/><path class="cls-40" d="M60.51,118H32.41c-2.42,0-4.31-1.53-4.31-3.48v-7.91c0-1.95,1.89-3.48,4.31-3.48h28.1c2.42,0,4.31,1.53,4.31,3.48v7.91C64.82,116.5,62.93,118,60.51,118Zm-28.1-11.86a1.57,1.57,0,0,0-1.31.5v7.88a1.65,1.65,0,0,0,1.31.48h28.1a1.57,1.57,0,0,0,1.31-.5v-7.88a1.65,1.65,0,0,0-1.31-.48H32.41Z"/><path class="cls-40" d="M99.86,118H71.76c-2.42,0-4.31-1.53-4.31-3.48v-7.91c0-1.95,1.89-3.48,4.31-3.48h28.1c2.42,0,4.31,1.53,4.31,3.48v7.91C104.17,116.5,102.27,118,99.86,118Zm-28.1-11.86a1.57,1.57,0,0,0-1.31.5v7.88a1.65,1.65,0,0,0,1.31.48h28.1a1.57,1.57,0,0,0,1.31-.5v-7.88a1.64,1.64,0,0,0-1.31-.48H71.76Z"/><g class="cls-41"><rect class="cls-40" x="7.74" y="8.74" width="14" height="14"/></g><g class="cls-42"><rect class="cls-40" x="18.98" y="8.74" width="14" height="14"/></g><rect class="cls-40" y="25.36" width="130.77" height="3"/><g class="cls-43"><rect class="cls-40" x="30.22" y="8.74" width="14" height="14"/></g></svg>