<?xml version="1.0" encoding="utf-8"?>
<!-- Generator: Adobe Illustrator 15.1.0, SVG Export Plug-In . SVG Version: 6.00 Build 0)  -->
<!DOCTYPE svg PUBLIC "-//W3C//DTD SVG 1.1//EN" "http://www.w3.org/Graphics/SVG/1.1/DTD/svg11.dtd">
<svg version="1.1" id="Layer_1" xmlns="http://www.w3.org/2000/svg" xmlns:xlink="http://www.w3.org/1999/xlink" x="0px" y="0px"
	 width="76px" height="76px" viewBox="-18.5 -20.875 76 76" enable-background="new -18.5 -20.875 76 76" xml:space="preserve">
<g>
	<title>Untitled-3</title>
	<path fill="#1E4C82" d="M5.14,25.052l-0.768-0.049c-12.162-0.824-21.346-11.34-20.523-23.5c0.82-12.161,11.388-21.344,23.5-20.523
		C18.481-18.252,27.308-9.324,27.92,1.758l0.054,0.719l-0.719,0.052C15.71,3.76,6.577,12.792,5.241,24.284L5.14,25.052z
		 M5.911-17.482C-5.428-17.277-14.458-7.887-14.202,3.4c0.205,10.211,7.848,18.729,18.01,19.958
		C5.501,11.713,14.685,2.631,26.331,1.094C25.354-9.425,16.479-17.482,5.911-17.482z"/>
	<path fill="#1E4C82" d="M29.719,53.321c-14.47,0-26.22-11.75-26.22-26.215c0-14.468,11.75-26.219,26.22-26.219
		c14.469,0,26.216,11.749,26.216,26.219C55.935,41.571,44.188,53.321,29.719,53.321z M29.719,2.425
		c-13.649,0-24.681,11.032-24.681,24.677c0,13.65,11.032,24.68,24.681,24.68c13.646,0,24.677-11.029,24.677-24.68
		C54.396,13.507,43.365,2.478,29.719,2.425z"/>
	<path fill="#1E4C82" d="M5.448,46.81c-6.466,0-12.059-4.566-13.289-10.93l4.412,3.436c0.359,0.256,0.822,0.207,1.078-0.15
		c0.26-0.361,0.208-0.824-0.152-1.08l-6.104-4.771c-0.155-0.207-0.415-0.307-0.67-0.26h-0.101l0,0
		c-0.26,0.053-0.463,0.26-0.516,0.516l-3.692,6.875c-0.206,0.361-0.051,0.824,0.359,1.027c0.359,0.152,0.82,0.053,0.975-0.309
		l2.464-4.564C-8.25,43.78-1.889,48.86,5.45,48.86c0.564,0,1.025-0.463,1.025-1.027S6.012,46.81,5.448,46.81z"/>
	<path fill="#1E4C82" d="M33.052-14.25c6.466,0,12.058,4.568,13.291,10.929l-4.411-3.439c-0.36-0.258-0.824-0.205-1.08,0.154
		s-0.205,0.821,0.153,1.077l6.109,4.772c0.152,0.206,0.407,0.308,0.663,0.256h0.102l0,0c0.26-0.05,0.466-0.256,0.517-0.514
		l3.694-6.824c0.203-0.359,0.048-0.821-0.362-1.026c-0.356-0.154-0.819-0.052-0.974,0.307l-2.465,4.566
		c-1.538-7.184-7.903-12.262-15.237-12.262c-0.564,0-1.027,0.462-1.027,1.027C32.024-14.662,32.487-14.25,33.052-14.25z"/>
	<g>
		<g>
			<g>
				<g>
					<g>
						<defs>
							<path id="SVGID_1_" d="M27.152,19.206c-0.925,0-1.591-0.719-1.591-1.594v-3.285c0-0.922,0.719-1.589,1.591-1.589
								c0.874,0,1.593,0.719,1.593,1.589v3.285C28.793,18.536,28.074,19.206,27.152,19.206"/>
						</defs>
						<clipPath id="SVGID_2_">
							<use xlink:href="#SVGID_1_"  overflow="visible"/>
						</clipPath>
						<g clip-path="url(#SVGID_2_)">
							<rect x="22.073" y="9.25" fill="#1E4C82" width="10.207" height="13.442"/>
						</g>
					</g>
				</g>
			</g>
		</g>
		<g>
			<g>
				<g>
					<g>
						<defs>
							<path id="SVGID_3_" d="M27.152,41.935c-0.925,0-1.591-0.719-1.591-1.594v-3.283c0-0.922,0.719-1.592,1.591-1.592
								c0.874,0,1.593,0.719,1.593,1.592v3.283C28.793,41.269,28.074,41.935,27.152,41.935L27.152,41.935"/>
						</defs>
						<clipPath id="SVGID_4_">
							<use xlink:href="#SVGID_3_"  overflow="visible"/>
						</clipPath>
						<g clip-path="url(#SVGID_4_)">
							<rect x="22.073" y="32.032" fill="#1E4C82" width="10.207" height="13.441"/>
						</g>
					</g>
				</g>
			</g>
		</g>
		<g>
			<g>
				<g>
					<g>
						<defs>
							<path id="SVGID_5_" d="M33.669,41.935c-0.926,0-1.594-0.719-1.594-1.594v-3.283c0-0.922,0.721-1.592,1.594-1.592
								c0.869,0,1.589,0.719,1.589,1.592v3.283C35.31,41.269,34.592,41.935,33.669,41.935L33.669,41.935"/>
						</defs>
						<clipPath id="SVGID_6_">
							<use xlink:href="#SVGID_5_"  overflow="visible"/>
						</clipPath>
						<g clip-path="url(#SVGID_6_)">
							<rect x="28.538" y="32.032" fill="#1E4C82" width="10.211" height="13.441"/>
						</g>
					</g>
				</g>
			</g>
		</g>
		<g>
			<g>
				<g>
					<g>
						<g>
							<defs>
								<path id="SVGID_7_" d="M33.669,19.206c-0.926,0-1.594-0.719-1.594-1.594l0,0v-3.285c0-0.922,0.721-1.589,1.594-1.589
									c0.869,0,1.589,0.719,1.589,1.589v3.285C35.31,18.536,34.538,19.206,33.669,19.206"/>
							</defs>
							<clipPath id="SVGID_8_">
								<use xlink:href="#SVGID_7_"  overflow="visible"/>
							</clipPath>
							<g clip-path="url(#SVGID_8_)">
								<rect x="28.538" y="9.25" fill="#1E4C82" width="10.211" height="13.442"/>
							</g>
						</g>
					</g>
				</g>
			</g>
			<g>
				<g>
					<g>
						<g>
							<defs>
								<path id="SVGID_9_" d="M32.024,38.702H23.97c-0.922,0-1.591-0.719-1.591-1.592l0,0v-19.5c0-0.923,0.718-1.59,1.591-1.59l0,0
									h8.105c3.642,0,6.464,2.926,6.519,6.465c0,1.9-0.822,3.695-2.209,4.926c2.668,2.363,2.924,6.467,0.565,9.184
									C35.617,37.931,33.873,38.702,32.024,38.702z M25.562,35.417h6.463c1.799,0.049,3.336-1.336,3.386-3.078
									c0.054-1.74-1.333-3.336-3.076-3.385c-0.05,0-0.203,0-0.256,0h-6.464L25.562,35.417L25.562,35.417z M25.562,25.669h6.463
									c1.799-0.053,3.184-1.592,3.079-3.387c-0.05-1.693-1.386-2.975-3.079-3.076h-6.463V25.669L25.562,25.669z"/>
							</defs>
							<clipPath id="SVGID_10_">
								<use xlink:href="#SVGID_9_"  overflow="visible"/>
							</clipPath>
							<g clip-path="url(#SVGID_10_)">
								<rect x="18.79" y="12.535" fill="#1E4C82" width="23.14" height="29.708"/>
							</g>
						</g>
					</g>
				</g>
			</g>
		</g>
	</g>
	<g>
		<g>
			<g>
				<g>
					<g>
						<defs>
							<path id="SVGID_11_" d="M5.14,10.738c-4.207,0-7.44-2.309-7.44-5.335c0-0.615,0.46-1.027,1.027-1.027
								c0.615,0,1.027,0.462,1.027,1.027c0,1.743,2.412,3.181,5.337,3.181c2.923,0,5.335-1.438,5.335-3.181
								c0-1.744-2.412-3.18-5.335-3.18c-4.208,0-7.442-2.311-7.442-5.336c0-3.027,3.285-5.337,7.442-5.337
								c4.153,0,7.438,2.31,7.438,5.337c0,0.615-0.46,1.026-1.026,1.026c-0.563,0-1.026-0.461-1.026-1.026
								c0-1.745-2.412-3.181-5.336-3.181c-2.923,0-5.335,1.437-5.335,3.181c0,1.744,2.412,3.18,5.335,3.18
								c4.208,0,7.44,2.31,7.44,5.336C12.58,8.429,9.297,10.738,5.14,10.738"/>
						</defs>
						<clipPath id="SVGID_12_">
							<use xlink:href="#SVGID_11_"  overflow="visible"/>
						</clipPath>
						<g clip-path="url(#SVGID_12_)">
							<rect x="-4.558" y="-10.659" fill="#1E4C82" width="19.446" height="23.655"/>
						</g>
					</g>
				</g>
			</g>
		</g>
		<g>
			<g>
				<g>
					<g>
						<defs>
							<path id="SVGID_13_" d="M5.14,12.842c-0.615,0-1.027-0.462-1.027-1.027l0,0v-21.24c0-0.615,0.463-1.028,1.027-1.028
								c0.615,0,1.027,0.462,1.027,1.028v21.24C6.22,12.378,5.704,12.842,5.14,12.842L5.14,12.842"/>
						</defs>
						<clipPath id="SVGID_14_">
							<use xlink:href="#SVGID_13_"  overflow="visible"/>
						</clipPath>
						<g clip-path="url(#SVGID_14_)">
							<rect x="1.806" y="-12.761" fill="#1E4C82" width="6.67" height="27.91"/>
						</g>
					</g>
				</g>
			</g>
		</g>
	</g>
</g>
</svg>
